<?xml version="1.0" encoding="UTF-8" standalone="no"?>
<!-- Created with Inkscape (http://www.inkscape.org/) -->

<svg
   width="100"
   height="100"
   viewBox="0 0 26.458333 26.458335"
   version="1.1"
   id="svg1"
   xml:space="preserve"
   inkscape:export-filename="logo.png"
   inkscape:export-xdpi="96"
   inkscape:export-ydpi="96"
   xmlns:inkscape="http://www.inkscape.org/namespaces/inkscape"
   xmlns:sodipodi="http://sodipodi.sourceforge.net/DTD/sodipodi-0.dtd"
   xmlns="http://www.w3.org/2000/svg"
   xmlns:svg="http://www.w3.org/2000/svg"><sodipodi:namedview
     id="namedview1"
     pagecolor="#ffffff"
     bordercolor="#000000"
     borderopacity="0.25"
     inkscape:showpageshadow="2"
     inkscape:pageopacity="0.0"
     inkscape:pagecheckerboard="0"
     inkscape:deskcolor="#d1d1d1"
     inkscape:document-units="mm" /><defs
     id="defs1" /><g
     inkscape:label="Capa 1"
     inkscape:groupmode="layer"
     id="layer1"><circle
       style="fill:#ffffff;fill-opacity:1;stroke-width:0.0216103;stroke-dasharray:none;paint-order:stroke fill markers"
       id="path169"
       cx="13.201378"
       cy="13.263355"
       r="13.201377" /><path
       style="fill:#66ccff;fill-opacity:1;stroke-width:0.128127"
       d="m 16.915884,23.861814 c -0.528105,-0.187918 -1.449351,-0.74201 -2.07951,-1.250741 -0.589087,-0.475573 -1.714582,-1.620709 -2.19829,-2.236652 -0.07819,-0.09956 -0.142159,-0.17177 -0.142159,-0.160463 0,0.0864 0.64233,1.270493 0.893238,1.646642 0.425171,0.637389 1.115407,1.471833 1.453648,1.757349 0.190009,0.160392 0.09746,0.159524 -0.299398,-0.0028 C 14.10881,23.437316 13.56399,22.992737 13.203371,22.521597 12.962559,22.207011 12.770828,21.897691 12.394374,21.216466 11.952629,20.417101 11.727024,20.077224 11.432014,19.766655 10.978862,19.289632 10.462546,18.974544 9.6991599,18.709184 8.9066985,18.433717 8.4618365,18.167517 8.0187733,17.703653 7.4759377,17.135337 7.259469,16.663102 7.0396426,15.567656 6.8428389,14.586935 6.6437168,14.241394 6.1294555,13.988197 5.921996,13.886054 5.877793,13.877143 5.5810192,13.877631 5.2428786,13.87818 4.9860398,13.931821 4.6267025,14.07698 4.51724,14.12119 4.4276763,14.1509 4.4276763,14.14301 c 0,-0.0079 0.032734,-0.07858 0.072738,-0.157085 0.1264196,-0.24804 0.3569812,-0.57459 0.5952193,-0.84302 0.7301904,-0.822727 1.4115585,-1.169645 2.122054,-1.080431 0.6856296,0.08609 1.2833586,0.709033 1.4854197,1.548077 0.067601,0.280727 0.070991,0.357608 0.051521,1.171255 -0.028447,1.189178 0.038209,1.551453 0.3770043,2.049012 0.4606236,0.676479 1.2863654,1.136055 2.2057994,1.227662 0.161714,0.01612 0.298096,0.02619 0.303064,0.02239 0.005,-0.0037 -0.156855,-0.153591 -0.359615,-0.332865 -0.202757,-0.179283 -0.49087,-0.455079 -0.640249,-0.612889 C 10.381466,16.861327 10.089,16.468335 10.089,16.393883 c 0,-0.01922 0.08009,0.04036 0.177976,0.132391 0.536147,0.504124 1.179625,0.996836 2.127237,1.628827 2.252554,1.502293 3.424116,2.13171 4.864682,2.613526 0.748865,0.250466 1.676143,0.412646 2.372806,0.414998 0.353021,0.0012 0.34133,0.01822 -0.114823,0.167288 -0.475832,0.155494 -0.807588,0.204619 -1.410479,0.208857 -0.966334,0.0068 -1.813811,-0.215934 -2.977468,-0.782506 -0.60585,-0.294981 -1.63664,-0.937448 -2.272029,-1.416103 -0.218142,-0.164333 -0.217453,-0.153839 0.0094,0.142783 1.073487,1.403788 2.497606,2.879326 3.894119,4.034716 0.502425,0.415677 0.520383,0.452999 0.155474,0.323154 z m -3.741655,-6.784181 c -0.71589,-0.06888 -1.539948,-0.335497 -2.034311,-0.658177 -0.519246,-0.338922 -0.951474,-0.921242 -1.119612,-1.508402 -0.1138156,-0.397458 -0.1287956,-0.984046 -0.03618,-1.416623 0.239579,-1.118977 0.828422,-1.833612 2.952503,-3.5832179 1.503276,-1.2382486 1.96131,-1.6266292 2.898203,-2.457475 0.647209,-0.5739534 2.266559,-2.1005055 3.542839,-3.3398225 0.307644,-0.2987327 0.618521,-0.5963947 0.690841,-0.6614686 l 0.131486,-0.1183167 -0.01913,0.3051018 c -0.06774,1.0807671 -0.795879,2.6109971 -1.833149,3.8524453 -0.90949,1.0885145 -1.962697,1.9210641 -3.173681,2.5087696 -0.634822,0.308086 -0.746951,0.413107 -0.644821,0.603942 0.151939,0.283899 1.0131,0.03007 2.403601,-0.7084249 0.286359,-0.1520882 0.52872,-0.2684571 0.538581,-0.2585982 0.05553,0.055532 -0.469317,0.6483981 -0.867121,0.9794761 -0.635427,0.528838 -1.383975,0.943443 -2.547377,1.410937 -0.936864,0.376465 -1.109189,0.469562 -1.240712,0.670294 l -0.05768,0.08804 0.334836,-0.02138 c 1.129468,-0.07213 3.091357,-0.876625 4.616532,-1.893055 0.637531,-0.424872 1.293511,-0.9227311 1.989845,-1.5102043 0.205096,-0.1730337 0.378627,-0.2975504 0.385625,-0.2767037 0.01849,0.055053 -0.187002,0.5112688 -0.373288,0.8287504 -0.503205,0.8576086 -1.342016,1.6837436 -2.3748,2.3389236 -0.693564,0.439984 -1.723032,0.9143 -2.387537,1.100031 -0.453162,0.12666 -0.529678,0.192349 -0.435714,0.374053 0.116365,0.225025 0.592121,0.360104 1.145987,0.325374 0.694394,-0.04354 1.194026,-0.162567 2.505742,-0.596926 0.498756,-0.165159 0.906831,-0.285347 0.906831,-0.267088 0,0.05949 -0.383453,0.43844 -0.661054,0.653272 -0.85385,0.660787 -1.926708,1.104772 -3.198754,1.323749 -0.699253,0.120376 -1.680039,0.12059 -2.333439,5.17e-4 -0.422729,-0.0777 -0.455952,-0.06683 -0.296626,0.09699 0.369802,0.380214 1.091047,0.648482 1.981144,0.736896 0.756406,0.07513 1.972495,-0.02092 2.796635,-0.22092 0.186379,-0.04523 0.343828,-0.07728 0.349887,-0.07121 0.006,0.006 -0.08218,0.08858 -0.19611,0.183391 -1.079912,0.898706 -2.708239,1.344086 -4.340023,1.187076 z M 9.2270466,13.497957 C 9.0453678,12.921608 8.8090862,12.552763 8.3139581,12.072598 7.74108,11.517036 7.5717076,11.130778 7.5741212,10.385376 7.5752225,10.02105 7.6183178,9.7212348 7.831879,8.5886653 8.0738358,7.3055412 8.0903147,5.8698572 7.8725432,5.046138 7.8454337,4.9436143 7.8284961,4.8545006 7.834884,4.848104 7.8848865,4.7980937 8.3164771,5.2256085 8.5102709,5.5171154 9.0410647,6.3155439 9.1092979,7.324189 8.7339796,8.8241005 8.6642548,9.1027504 8.6144066,9.3582739 8.6232089,9.3919288 8.7236644,9.7760746 9.5812705,8.2136759 9.8881544,7.0874322 c 0.04439,-0.1629175 0.08912,-0.2682254 0.106528,-0.2508183 0.06773,0.067726 0.1342286,0.4203866 0.1513966,0.8028441 0.0295,0.657348 -0.107342,1.2571443 -0.4698953,2.0594685 -0.4200373,0.9295275 -0.4819361,1.1441025 -0.330044,1.1441025 0.1549122,0 0.8535703,-0.779853 1.1769063,-1.3136803 0.175393,-0.2895732 0.389316,-0.7659583 0.45667,-1.0169606 0.02127,-0.079241 0.04863,-0.1440746 0.06081,-0.1440746 0.05895,0 0.140745,0.4250083 0.157599,0.8187911 0.04076,0.9522974 -0.175391,1.6141684 -0.832777,2.5500834 -0.5962984,0.848943 -0.8890027,1.364022 -1.008962,1.775483 -0.028541,0.09789 -0.055643,0.177975 -0.060237,0.177975 -0.00464,0 -0.035693,-0.08671 -0.069095,-0.192689 z"
       id="path162-6" /></g></svg>
